STARTFONT 2.1
COMMENT
COMMENT  Copyright (c) 1999, Thomas A. Fine
COMMENT
COMMENT  License to copy and distribute for both commercial and
COMMENT  non-commercial use is herby granted, provided this notice
COMMENT  is preserved.
COMMENT
COMMENT  fine@head-cfa.harvard.edu
COMMENT  http://hea-www.harvard.edu/~fine/
COMMENT
COMMENT  Produced with bdfedit, a tcl/tk font editing program
COMMENT  written by Thomas A. Fine
COMMENT
FONT -Fine-CursiveSmart-Medium-I-Normal--13-130-72-72-C-120-ISO8859-1
SIZE 13 72 72
FONTBOUNDINGBOX 10 15 0 -4
STARTPROPERTIES 11
FOUNDRY "Fine"
FAMILY_NAME "CursiveSmart"
WEIGHT_NAME "Medium"
SLANT "I"
SETWIDTH_NAME "Normal"
SPACING "c"
CHARSET_REGISTRY "ISO-8859"
CHARSET_ENCODING "1"
COPYRIGHT "Designer of this font retains full rights under the law"
FONT_ASCENT  11
FONT_DESCENT 4
ENDPROPERTIES
CHARS 148
STARTCHAR C040
ENCODING 32
SWIDTH 692 0
DWIDTH 9 0
BBX 0 0 0 0
BITMAP
ENDCHAR
STARTCHAR C041
ENCODING 33
SWIDTH 538 0
DWIDTH 7 0
BBX 4 10 1 0
BITMAP
10
10
10
20
20
20
40
40
00
80
ENDCHAR
STARTCHAR C042
ENCODING 34
SWIDTH 538 0
DWIDTH 7 0
BBX 4 4 2 6
BITMAP
50
50
a0
a0
ENDCHAR
STARTCHAR C043
ENCODING 35
SWIDTH 692 0
DWIDTH 9 0
BBX 9 10 0 0
BITMAP
1100
1100
1100
7f80
2200
2200
ff00
4400
8800
8800
ENDCHAR
STARTCHAR C044
ENCODING 36
SWIDTH 692 0
DWIDTH 9 0
BBX 8 12 1 -1
BITMAP
0a
3e
4b
54
54
3c
2a
2a
aa
d2
7c
50
ENDCHAR
STARTCHAR C045
ENCODING 37
SWIDTH 692 0
DWIDTH 9 0
BBX 8 10 1 0
BITMAP
63
be
a4
c8
10
10
26
4a
4a
8c
ENDCHAR
STARTCHAR C046
ENCODING 38
SWIDTH 692 0
DWIDTH 9 0
BBX 7 11 1 0
BITMAP
10
28
28
18
10
30
4a
8c
88
94
62
ENDCHAR
STARTCHAR C047
ENCODING 39
SWIDTH 461 0
DWIDTH 6 0
BBX 2 3 2 7
BITMAP
40
40
80
ENDCHAR
STARTCHAR C050
ENCODING 40
SWIDTH 538 0
DWIDTH 7 0
BBX 4 10 2 0
BITMAP
10
20
40
40
80
80
80
40
40
20
ENDCHAR
STARTCHAR C051
ENCODING 41
SWIDTH 538 0
DWIDTH 7 0
BBX 4 10 1 0
BITMAP
40
20
20
10
10
10
20
20
40
80
ENDCHAR
STARTCHAR C052
ENCODING 42
SWIDTH 692 0
DWIDTH 9 0
BBX 7 7 1 1
BITMAP
14
08
10
fe
10
20
50
ENDCHAR
STARTCHAR C053
ENCODING 43
SWIDTH 692 0
DWIDTH 9 0
BBX 7 7 1 1
BITMAP
08
08
10
fe
10
20
20
ENDCHAR
STARTCHAR C054
ENCODING 44
SWIDTH 461 0
DWIDTH 6 0
BBX 2 3 1 -2
BITMAP
40
40
80
ENDCHAR
STARTCHAR C055
ENCODING 45
SWIDTH 692 0
DWIDTH 9 0
BBX 6 1 1 4
BITMAP
fc
ENDCHAR
STARTCHAR C056
ENCODING 46
SWIDTH 461 0
DWIDTH 6 0
BBX 2 2 2 0
BITMAP
80
c0
ENDCHAR
STARTCHAR C057
ENCODING 47
SWIDTH 692 0
DWIDTH 9 0
BBX 7 10 1 0
BITMAP
02
04
04
08
10
10
20
40
40
80
ENDCHAR
STARTCHAR C060
ENCODING 48
SWIDTH 692 0
DWIDTH 9 0
BBX 7 10 1 0
BITMAP
1c
22
42
42
42
84
84
84
88
70
ENDCHAR
STARTCHAR C061
ENCODING 49
SWIDTH 538 0
DWIDTH 7 0
BBX 5 10 1 0
BITMAP
08
18
68
10
10
10
20
20
20
f0
ENDCHAR
STARTCHAR C062
ENCODING 50
SWIDTH 692 0
DWIDTH 9 0
BBX 7 10 1 0
BITMAP
38
44
82
02
02
04
04
68
98
66
ENDCHAR
STARTCHAR C063
ENCODING 51
SWIDTH 692 0
DWIDTH 9 0
BBX 6 10 2 0
BITMAP
38
44
04
04
18
04
04
04
88
70
ENDCHAR
STARTCHAR C064
ENCODING 52
SWIDTH 692 0
DWIDTH 9 0
BBX 7 10 1 0
BITMAP
22
22
22
44
44
fe
04
08
08
08
ENDCHAR
STARTCHAR C065
ENCODING 53
SWIDTH 692 0
DWIDTH 9 0
BBX 8 10 1 0
BITMAP
3f
20
40
7c
42
02
02
02
84
78
ENDCHAR
STARTCHAR C066
ENCODING 54
SWIDTH 692 0
DWIDTH 9 0
BBX 7 10 1 0
BITMAP
06
08
10
20
5c
a2
c2
82
84
78
ENDCHAR
STARTCHAR C067
ENCODING 55
SWIDTH 692 0
DWIDTH 9 0
BBX 7 10 1 0
BITMAP
fe
02
04
08
10
20
20
40
80
80
ENDCHAR
STARTCHAR C070
ENCODING 56
SWIDTH 692 0
DWIDTH 9 0
BBX 7 10 1 0
BITMAP
3c
42
44
38
18
24
44
84
88
70
ENDCHAR
STARTCHAR C071
ENCODING 57
SWIDTH 692 0
DWIDTH 9 0
BBX 7 10 1 0
BITMAP
3c
42
82
82
8e
74
08
10
20
c0
ENDCHAR
STARTCHAR C072
ENCODING 58
SWIDTH 538 0
DWIDTH 7 0
BBX 4 7 1 0
BITMAP
30
60
00
00
00
60
c0
ENDCHAR
STARTCHAR C073
ENCODING 59
SWIDTH 538 0
DWIDTH 7 0
BBX 4 8 1 -1
BITMAP
30
60
00
00
00
40
40
80
ENDCHAR
STARTCHAR C074
ENCODING 60
SWIDTH 538 0
DWIDTH 7 0
BBX 5 8 1 1
BITMAP
08
10
20
40
80
40
20
10
ENDCHAR
STARTCHAR C075
ENCODING 61
SWIDTH 692 0
DWIDTH 9 0
BBX 7 5 1 1
BITMAP
7e
00
00
00
fc
ENDCHAR
STARTCHAR C076
ENCODING 62
SWIDTH 538 0
DWIDTH 7 0
BBX 5 8 1 0
BITMAP
40
20
10
08
10
20
40
80
ENDCHAR
STARTCHAR C077
ENCODING 63
SWIDTH 692 0
DWIDTH 9 0
BBX 7 10 1 0
BITMAP
3c
42
82
82
04
08
10
10
00
20
ENDCHAR
STARTCHAR C100
ENCODING 64
SWIDTH 769 0
DWIDTH 10 0
BBX 8 9 1 0
BITMAP
1e
21
41
9d
a5
aa
9c
80
7c
ENDCHAR
STARTCHAR C101
ENCODING 65
SWIDTH 692 0
DWIDTH 9 0
BBX 8 10 1 0
BITMAP
1d
23
42
42
86
84
84
88
8c
77
ENDCHAR
STARTCHAR C102
ENCODING 66
SWIDTH 692 0
DWIDTH 9 0
BBX 7 10 1 0
BITMAP
4c
b2
22
44
5c
42
42
82
c2
bc
ENDCHAR
STARTCHAR C103
ENCODING 67
SWIDTH 692 0
DWIDTH 9 0
BBX 8 10 1 0
BITMAP
1c
22
42
42
80
80
80
80
40
3f
ENDCHAR
STARTCHAR C104
ENCODING 68
SWIDTH 692 0
DWIDTH 9 0
BBX 8 10 1 0
BITMAP
26
29
31
31
51
52
52
ca
c4
bb
ENDCHAR
STARTCHAR C105
ENCODING 69
SWIDTH 692 0
DWIDTH 9 0
BBX 8 10 1 0
BITMAP
1e
21
22
38
54
88
80
80
40
3f
ENDCHAR
STARTCHAR C106
ENCODING 70
SWIDTH 692 0
DWIDTH 9 0
BBX 8 10 1 0
BITMAP
63
9f
04
04
04
1e
08
08
48
30
ENDCHAR
STARTCHAR C107
ENCODING 71
SWIDTH 692 0
DWIDTH 9 0
BBX 9 10 0 0
BITMAP
1000
2880
2980
1e80
1080
1080
2100
2100
6200
9f80
ENDCHAR
STARTCHAR C110
ENCODING 72
SWIDTH 692 0
DWIDTH 9 0
BBX 8 10 1 0
BITMAP
41
a2
22
22
74
6c
64
9f
88
88
ENDCHAR
STARTCHAR C111
ENCODING 73
SWIDTH 692 0
DWIDTH 9 0
BBX 8 10 1 0
BITMAP
0c
12
22
22
22
14
14
fc
4e
35
ENDCHAR
STARTCHAR C112
ENCODING 74
SWIDTH 692 0
DWIDTH 9 0
BBX 8 14 1 -4
BITMAP
0c
12
22
22
22
14
14
14
1c
6b
88
88
90
60
ENDCHAR
STARTCHAR C113
ENCODING 75
SWIDTH 692 0
DWIDTH 9 0
BBX 8 10 1 0
BITMAP
41
a2
22
22
54
78
48
88
84
83
ENDCHAR
STARTCHAR C114
ENCODING 76
SWIDTH 692 0
DWIDTH 9 0
BBX 9 10 0 0
BITMAP
0800
5400
3800
1000
1000
2000
2000
2000
f800
c780
ENDCHAR
STARTCHAR C115
ENCODING 77
SWIDTH 769 0
DWIDTH 10 0
BBX 10 10 0 0
BITMAP
6d80
9240
1240
1240
2480
2480
2480
4900
4900
c8c0
ENDCHAR
STARTCHAR C116
ENCODING 78
SWIDTH 692 0
DWIDTH 9 0
BBX 9 10 0 0
BITMAP
6700
9880
1080
1080
2100
2100
2100
4200
4200
4180
ENDCHAR
STARTCHAR C117
ENCODING 79
SWIDTH 692 0
DWIDTH 9 0
BBX 8 10 1 0
BITMAP
1c
2a
4a
47
82
82
82
82
84
78
ENDCHAR
STARTCHAR C120
ENCODING 80
SWIDTH 692 0
DWIDTH 9 0
BBX 8 10 1 0
BITMAP
5e
b1
21
22
42
7c
40
80
80
80
ENDCHAR
STARTCHAR C121
ENCODING 81
SWIDTH 692 0
DWIDTH 9 0
BBX 8 10 1 0
BITMAP
38
44
82
82
82
84
84
28
58
27
ENDCHAR
STARTCHAR C122
ENCODING 82
SWIDTH 692 0
DWIDTH 9 0
BBX 8 10 1 0
BITMAP
5e
b1
21
22
52
7c
48
88
84
83
ENDCHAR
STARTCHAR C123
ENCODING 83
SWIDTH 692 0
DWIDTH 9 0
BBX 9 10 0 0
BITMAP
0400
0a00
0a00
0400
0a00
0900
1100
2100
5200
8f80
ENDCHAR
STARTCHAR C124
ENCODING 84
SWIDTH 692 0
DWIDTH 9 0
BBX 8 10 1 0
BITMAP
63
9f
04
04
04
08
08
08
48
30
ENDCHAR
STARTCHAR C125
ENCODING 85
SWIDTH 692 0
DWIDTH 9 0
BBX 8 10 1 0
BITMAP
41
a2
22
22
44
44
44
88
88
77
ENDCHAR
STARTCHAR C126
ENCODING 86
SWIDTH 692 0
DWIDTH 9 0
BBX 8 10 1 0
BITMAP
41
a2
22
22
24
24
44
48
50
20
ENDCHAR
STARTCHAR C127
ENCODING 87
SWIDTH 769 0
DWIDTH 10 0
BBX 10 10 0 0
BITMAP
4440
a480
2900
2900
4a00
5a00
5a00
6400
4400
4400
ENDCHAR
STARTCHAR C130
ENCODING 88
SWIDTH 692 0
DWIDTH 9 0
BBX 8 10 1 0
BITMAP
41
a2
22
24
18
10
28
48
48
87
ENDCHAR
STARTCHAR C131
ENCODING 89
SWIDTH 692 0
DWIDTH 9 0
BBX 8 14 1 -4
BITMAP
41
a2
22
22
22
44
44
44
3c
6b
88
88
90
60
ENDCHAR
STARTCHAR C132
ENCODING 90
SWIDTH 692 0
DWIDTH 9 0
BBX 8 14 1 -4
BITMAP
30
48
48
88
88
9c
92
42
1e
33
42
44
48
30
ENDCHAR
STARTCHAR C133
ENCODING 91
SWIDTH 692 0
DWIDTH 9 0
BBX 7 12 1 -1
BITMAP
06
18
10
10
20
20
20
40
40
80
c0
30
ENDCHAR
STARTCHAR C134
ENCODING 92
SWIDTH 692 0
DWIDTH 9 0
BBX 5 10 2 0
BITMAP
80
80
40
40
20
20
10
10
08
08
ENDCHAR
STARTCHAR C135
ENCODING 93
SWIDTH 692 0
DWIDTH 9 0
BBX 7 12 1 -1
BITMAP
18
06
02
04
04
04
08
08
08
10
30
c0
ENDCHAR
STARTCHAR C136
ENCODING 94
SWIDTH 692 0
DWIDTH 9 0
BBX 7 3 1 6
BITMAP
08
34
c2
ENDCHAR
STARTCHAR C137
ENCODING 95
SWIDTH 692 0
DWIDTH 9 0
BBX 8 1 0 -1
BITMAP
db
ENDCHAR
STARTCHAR C140
ENCODING 96
SWIDTH 692 0
DWIDTH 9 0
BBX 2 3 5 7
BITMAP
80
80
40
ENDCHAR
STARTCHAR C141
ENCODING 97
SWIDTH 692 0
DWIDTH 9 0
BBX 9 6 0 0
BITMAP
0d00
1300
2100
6200
a200
1d80
ENDCHAR
STARTCHAR C142
ENCODING 98
SWIDTH 692 0
DWIDTH 9 0
BBX 9 10 0 0
BITMAP
0400
0a00
1200
1400
1400
2400
2f80
3200
2200
dc00
ENDCHAR
STARTCHAR C143
ENCODING 99
SWIDTH 615 0
DWIDTH 8 0
BBX 8 6 0 0
BITMAP
0e
19
30
30
50
8f
ENDCHAR
STARTCHAR C144
ENCODING 100
SWIDTH 692 0
DWIDTH 9 0
BBX 9 10 0 0
BITMAP
0100
0280
0280
0480
1d00
3500
2500
6200
a200
1d80
ENDCHAR
STARTCHAR C145
ENCODING 101
SWIDTH 538 0
DWIDTH 7 0
BBX 7 6 0 0
BITMAP
1c
32
24
38
60
9e
ENDCHAR
STARTCHAR C146
ENCODING 102
SWIDTH 615 0
DWIDTH 8 0
BBX 8 14 0 -4
BITMAP
04
0a
12
12
14
24
28
30
6c
ab
48
48
48
30
ENDCHAR
STARTCHAR C147
ENCODING 103
SWIDTH 692 0
DWIDTH 9 0
BBX 9 10 0 -4
BITMAP
1d00
3300
2100
6200
a300
1e80
1200
2400
2400
1800
ENDCHAR
STARTCHAR C150
ENCODING 104
SWIDTH 615 0
DWIDTH 8 0
BBX 8 10 0 0
BITMAP
04
0a
12
14
14
27
29
32
62
c3
ENDCHAR
STARTCHAR C151
ENCODING 105
SWIDTH 461 0
DWIDTH 6 0
BBX 6 9 0 0
BITMAP
04
00
08
08
10
10
20
50
8c
ENDCHAR
STARTCHAR C152
ENCODING 106
SWIDTH 538 0
DWIDTH 7 0
BBX 7 13 0 -4
BITMAP
02
00
04
04
08
18
28
48
9e
28
48
90
60
ENDCHAR
STARTCHAR C153
ENCODING 107
SWIDTH 692 0
DWIDTH 9 0
BBX 9 10 0 0
BITMAP
0400
0a00
1200
1200
1400
2400
2e00
3200
6c00
c380
ENDCHAR
STARTCHAR C154
ENCODING 108
SWIDTH 538 0
DWIDTH 7 0
BBX 7 10 0 0
BITMAP
04
0a
12
14
24
28
30
20
60
9e
ENDCHAR
STARTCHAR C155
ENCODING 109
SWIDTH 769 0
DWIDTH 10 0
BBX 10 6 0 0
BITMAP
3f80
5240
5240
a480
a480
2440
ENDCHAR
STARTCHAR C156
ENCODING 110
SWIDTH 692 0
DWIDTH 9 0
BBX 9 6 0 0
BITMAP
1600
2900
4900
5200
9200
1380
ENDCHAR
STARTCHAR C157
ENCODING 111
SWIDTH 692 0
DWIDTH 9 0
BBX 9 6 0 0
BITMAP
1c00
3380
6200
6200
a200
1c00
ENDCHAR
STARTCHAR C160
ENCODING 112
SWIDTH 692 0
DWIDTH 9 0
BBX 9 10 0 -4
BITMAP
1600
3900
3100
7200
b200
5f80
5000
9000
9000
6000
ENDCHAR
STARTCHAR C161
ENCODING 113
SWIDTH 692 0
DWIDTH 9 0
BBX 9 10 0 -4
BITMAP
1a00
3600
2200
6400
6400
9f80
0500
0900
0a00
0400
ENDCHAR
STARTCHAR C162
ENCODING 114
SWIDTH 615 0
DWIDTH 8 0
BBX 8 7 0 0
BITMAP
10
1c
22
24
24
44
83
ENDCHAR
STARTCHAR C163
ENCODING 115
SWIDTH 615 0
DWIDTH 8 0
BBX 8 7 0 0
BITMAP
10
18
14
24
22
52
9f
ENDCHAR
STARTCHAR C164
ENCODING 116
SWIDTH 538 0
DWIDTH 7 0
BBX 7 10 0 0
BITMAP
04
04
08
08
7e
10
10
20
50
8e
ENDCHAR
STARTCHAR C165
ENCODING 117
SWIDTH 692 0
DWIDTH 9 0
BBX 9 6 0 0
BITMAP
1100
3100
2100
2200
6300
9c80
ENDCHAR
STARTCHAR C166
ENCODING 118
SWIDTH 692 0
DWIDTH 9 0
BBX 9 6 0 0
BITMAP
3200
5380
5200
9400
a400
1800
ENDCHAR
STARTCHAR C167
ENCODING 119
SWIDTH 769 0
DWIDTH 10 0
BBX 10 6 0 0
BITMAP
3240
5240
5280
5480
a480
9b00
ENDCHAR
STARTCHAR C170
ENCODING 120
SWIDTH 692 0
DWIDTH 9 0
BBX 9 6 0 0
BITMAP
1100
2a00
2400
4c00
9400
2380
ENDCHAR
STARTCHAR C171
ENCODING 121
SWIDTH 692 0
DWIDTH 9 0
BBX 9 10 0 -4
BITMAP
1100
3100
2100
2200
6300
9e80
1400
2400
2800
1800
ENDCHAR
STARTCHAR C172
ENCODING 122
SWIDTH 692 0
DWIDTH 9 0
BBX 9 10 0 -4
BITMAP
1c00
2200
2200
4c00
4200
8f80
0a00
1200
1400
0c00
ENDCHAR
STARTCHAR C173
ENCODING 123
SWIDTH 692 0
DWIDTH 9 0
BBX 7 12 1 -1
BITMAP
06
08
08
08
30
c0
20
20
40
40
40
20
ENDCHAR
STARTCHAR C174
ENCODING 124
SWIDTH 538 0
DWIDTH 7 0
BBX 3 10 2 0
BITMAP
20
20
20
40
40
40
40
80
80
80
ENDCHAR
STARTCHAR C175
ENCODING 125
SWIDTH 692 0
DWIDTH 9 0
BBX 7 12 0 -1
BITMAP
08
04
04
04
08
04
0e
10
20
20
20
c0
ENDCHAR
STARTCHAR C176
ENCODING 126
SWIDTH 692 0
DWIDTH 9 0
BBX 8 3 1 6
BITMAP
60
93
8c
ENDCHAR
STARTCHAR C177
ENCODING 127
SWIDTH 692 0
DWIDTH 9 0
BBX 0 0 0 0
BITMAP
ENDCHAR
STARTCHAR C301
ENCODING 193
SWIDTH 615 0
DWIDTH 8 0
BBX 8 6 0 0
BITMAP
3a
e6
42
44
44
3b
ENDCHAR
STARTCHAR C302
ENCODING 194
SWIDTH 692 0
DWIDTH 9 0
BBX 9 10 0 0
BITMAP
0400
0a00
1200
1400
1400
2400
af80
7200
2200
1c00
ENDCHAR
STARTCHAR C303
ENCODING 195
SWIDTH 461 0
DWIDTH 6 0
BBX 6 6 0 0
BITMAP
38
64
c0
40
40
3c
ENDCHAR
STARTCHAR C304
ENCODING 196
SWIDTH 692 0
DWIDTH 9 0
BBX 9 10 0 0
BITMAP
0100
0280
0280
0480
1d00
3500
e500
2200
2200
1d80
ENDCHAR
STARTCHAR C305
ENCODING 197
SWIDTH 538 0
DWIDTH 7 0
BBX 7 6 0 0
BITMAP
1c
32
a4
78
20
1e
ENDCHAR
STARTCHAR C306
ENCODING 198
SWIDTH 615 0
DWIDTH 8 0
BBX 8 14 0 -4
BITMAP
04
0a
12
12
14
24
a8
70
2c
2b
48
48
48
30
ENDCHAR
STARTCHAR C307
ENCODING 199
SWIDTH 615 0
DWIDTH 8 0
BBX 8 10 0 -4
BITMAP
3a
e6
42
44
46
3d
24
48
48
30
ENDCHAR
STARTCHAR C310
ENCODING 200
SWIDTH 615 0
DWIDTH 8 0
BBX 8 10 0 0
BITMAP
04
0a
12
14
14
2f
f9
32
62
43
ENDCHAR
STARTCHAR C311
ENCODING 201
SWIDTH 461 0
DWIDTH 6 0
BBX 6 9 0 0
BITMAP
04
00
08
08
10
90
60
10
0c
ENDCHAR
STARTCHAR C312
ENCODING 202
SWIDTH 538 0
DWIDTH 7 0
BBX 7 13 0 -4
BITMAP
02
00
04
04
08
98
68
08
1e
28
48
90
60
ENDCHAR
STARTCHAR C313
ENCODING 203
SWIDTH 692 0
DWIDTH 9 0
BBX 9 10 0 0
BITMAP
0400
0a00
1200
1200
1400
2400
fe00
3200
2c00
4380
ENDCHAR
STARTCHAR C314
ENCODING 204
SWIDTH 538 0
DWIDTH 7 0
BBX 7 10 0 0
BITMAP
04
0a
12
14
24
28
b0
60
20
1e
ENDCHAR
STARTCHAR C315
ENCODING 205
SWIDTH 769 0
DWIDTH 10 0
BBX 10 6 0 0
BITMAP
3f80
5240
9240
2480
2480
2440
ENDCHAR
STARTCHAR C316
ENCODING 206
SWIDTH 692 0
DWIDTH 9 0
BBX 9 6 0 0
BITMAP
1600
2900
c900
1200
1200
1380
ENDCHAR
STARTCHAR C317
ENCODING 207
SWIDTH 692 0
DWIDTH 9 0
BBX 9 6 0 0
BITMAP
1c00
7300
a280
2200
2200
1c00
ENDCHAR
STARTCHAR C320
ENCODING 208
SWIDTH 692 0
DWIDTH 9 0
BBX 9 10 0 -4
BITMAP
1600
3900
f100
3200
3200
5f80
5000
9000
9000
6000
ENDCHAR
STARTCHAR C321
ENCODING 209
SWIDTH 692 0
DWIDTH 9 0
BBX 9 10 0 -4
BITMAP
1a00
3600
e200
2400
2400
1f80
0500
0900
0a00
0400
ENDCHAR
STARTCHAR C322
ENCODING 210
SWIDTH 615 0
DWIDTH 8 0
BBX 8 7 0 0
BITMAP
10
1c
22
a4
44
04
03
ENDCHAR
STARTCHAR C323
ENCODING 211
SWIDTH 615 0
DWIDTH 8 0
BBX 8 7 0 0
BITMAP
10
18
14
e4
22
22
1f
ENDCHAR
STARTCHAR C324
ENCODING 212
SWIDTH 538 0
DWIDTH 7 0
BBX 7 10 0 0
BITMAP
04
04
08
08
7e
10
90
a0
50
0e
ENDCHAR
STARTCHAR C325
ENCODING 213
SWIDTH 692 0
DWIDTH 9 0
BBX 9 6 0 0
BITMAP
1100
3100
e100
2200
2300
1c80
ENDCHAR
STARTCHAR C326
ENCODING 214
SWIDTH 692 0
DWIDTH 9 0
BBX 9 6 0 0
BITMAP
3200
d380
1200
1400
2400
1800
ENDCHAR
STARTCHAR C327
ENCODING 215
SWIDTH 769 0
DWIDTH 10 0
BBX 10 6 0 0
BITMAP
3240
5240
9280
1480
2480
1b00
ENDCHAR
STARTCHAR C330
ENCODING 216
SWIDTH 692 0
DWIDTH 9 0
BBX 9 6 0 0
BITMAP
1100
2a00
c400
0c00
1400
2380
ENDCHAR
STARTCHAR C331
ENCODING 217
SWIDTH 692 0
DWIDTH 9 0
BBX 9 10 0 -4
BITMAP
1100
3100
e100
2200
2300
1e80
1400
2400
2800
1800
ENDCHAR
STARTCHAR C332
ENCODING 218
SWIDTH 692 0
DWIDTH 9 0
BBX 9 10 0 -4
BITMAP
1c00
2200
c200
0c00
0200
0f80
0a00
1200
1400
0c00
ENDCHAR
STARTCHAR C341
ENCODING 225
SWIDTH 615 0
DWIDTH 8 0
BBX 7 6 1 0
BITMAP
34
4c
84
88
88
76
ENDCHAR
STARTCHAR C342
ENCODING 226
SWIDTH 692 0
DWIDTH 9 0
BBX 9 10 0 0
BITMAP
0400
0a00
1200
1400
1400
2400
2f80
3200
2200
dc00
ENDCHAR
STARTCHAR C343
ENCODING 227
SWIDTH 461 0
DWIDTH 6 0
BBX 5 6 1 0
BITMAP
70
c8
80
80
80
78
ENDCHAR
STARTCHAR C344
ENCODING 228
SWIDTH 615 0
DWIDTH 8 0
BBX 7 10 1 0
BITMAP
04
0a
0a
12
74
d4
94
88
88
76
ENDCHAR
STARTCHAR C345
ENCODING 229
SWIDTH 538 0
DWIDTH 7 0
BBX 7 6 0 0
BITMAP
1c
32
24
38
60
9e
ENDCHAR
STARTCHAR C346
ENCODING 230
SWIDTH 615 0
DWIDTH 8 0
BBX 8 14 0 -4
BITMAP
04
0a
12
12
14
24
28
30
6c
ab
48
48
48
30
ENDCHAR
STARTCHAR C347
ENCODING 231
SWIDTH 615 0
DWIDTH 8 0
BBX 7 10 1 -4
BITMAP
74
cc
84
88
8c
7a
48
90
90
60
ENDCHAR
STARTCHAR C350
ENCODING 232
SWIDTH 615 0
DWIDTH 8 0
BBX 8 10 0 0
BITMAP
04
0a
12
14
14
27
29
32
62
c3
ENDCHAR
STARTCHAR C351
ENCODING 233
SWIDTH 461 0
DWIDTH 6 0
BBX 6 9 0 0
BITMAP
04
00
08
08
10
10
20
50
8c
ENDCHAR
STARTCHAR C352
ENCODING 234
SWIDTH 538 0
DWIDTH 7 0
BBX 7 13 0 -4
BITMAP
02
00
04
04
08
18
28
48
9e
28
48
90
60
ENDCHAR
STARTCHAR C353
ENCODING 235
SWIDTH 692 0
DWIDTH 9 0
BBX 9 10 0 0
BITMAP
0400
0a00
1200
1200
1400
2400
2e00
3200
6c00
c380
ENDCHAR
STARTCHAR C354
ENCODING 236
SWIDTH 538 0
DWIDTH 7 0
BBX 7 10 0 0
BITMAP
04
0a
12
14
24
28
30
20
60
9e
ENDCHAR
STARTCHAR C355
ENCODING 237
SWIDTH 769 0
DWIDTH 10 0
BBX 10 6 0 0
BITMAP
3f80
5240
5240
a480
a480
2440
ENDCHAR
STARTCHAR C356
ENCODING 238
SWIDTH 692 0
DWIDTH 9 0
BBX 8 6 1 0
BITMAP
2c
52
92
24
24
27
ENDCHAR
STARTCHAR C357
ENCODING 239
SWIDTH 615 0
DWIDTH 8 0
BBX 7 6 1 0
BITMAP
30
ce
88
88
88
70
ENDCHAR
STARTCHAR C360
ENCODING 240
SWIDTH 692 0
DWIDTH 9 0
BBX 9 10 0 -4
BITMAP
1600
3900
3100
7200
b200
5f80
5000
9000
9000
6000
ENDCHAR
STARTCHAR C361
ENCODING 241
SWIDTH 615 0
DWIDTH 8 0
BBX 7 10 1 -4
BITMAP
68
d8
88
90
90
7e
14
24
28
10
ENDCHAR
STARTCHAR C362
ENCODING 242
SWIDTH 615 0
DWIDTH 8 0
BBX 8 7 0 0
BITMAP
10
1c
22
24
24
44
83
ENDCHAR
STARTCHAR C363
ENCODING 243
SWIDTH 615 0
DWIDTH 8 0
BBX 8 7 0 0
BITMAP
10
18
14
24
22
52
9f
ENDCHAR
STARTCHAR C364
ENCODING 244
SWIDTH 538 0
DWIDTH 7 0
BBX 7 10 0 0
BITMAP
04
04
08
08
7e
10
10
20
50
8e
ENDCHAR
STARTCHAR C365
ENCODING 245
SWIDTH 615 0
DWIDTH 8 0
BBX 7 6 1 0
BITMAP
c4
44
84
88
8c
72
ENDCHAR
STARTCHAR C366
ENCODING 246
SWIDTH 692 0
DWIDTH 9 0
BBX 8 6 1 0
BITMAP
64
a7
a4
28
48
30
ENDCHAR
STARTCHAR C367
ENCODING 247
SWIDTH 769 0
DWIDTH 10 0
BBX 9 6 1 0
BITMAP
6480
a480
a500
2900
4900
3600
ENDCHAR
STARTCHAR C370
ENCODING 248
SWIDTH 692 0
DWIDTH 9 0
BBX 8 6 1 0
BITMAP
22
54
48
98
28
47
ENDCHAR
STARTCHAR C371
ENCODING 249
SWIDTH 615 0
DWIDTH 8 0
BBX 7 10 1 -4
BITMAP
c4
44
84
88
8c
7a
50
90
a0
60
ENDCHAR
STARTCHAR C372
ENCODING 250
SWIDTH 692 0
DWIDTH 9 0
BBX 8 10 1 -4
BITMAP
38
44
44
98
84
1f
14
24
28
18
ENDCHAR
ENDFONT
